<svg preserveAspectRatio="none" overflow="visible" style="display: block;" width="24" height="24" viewBox="0 0 24 24" fill="none" xmlns="http://www.w3.org/2000/svg">
<g id="proicons:x-twitter">
<path id="Vector" d="M10.919 13.288L15.705 19.998C15.7605 20.076 15.8339 20.1395 15.9189 20.1833C16.004 20.2272 16.0983 20.25 16.194 20.25H18.72C18.8301 20.2499 18.938 20.2194 19.032 20.162C19.126 20.1046 19.2023 20.0225 19.2527 19.9246C19.3031 19.8267 19.3256 19.7169 19.3177 19.607C19.3098 19.4972 19.2719 19.3917 19.208 19.302L13.081 10.712L8.295 4.002C8.2395 3.92404 8.16615 3.86049 8.08108 3.81666C7.99602 3.77282 7.9017 3.74996 7.806 3.75H5.28C5.1699 3.75014 5.06196 3.78057 4.96801 3.83797C4.87405 3.89536 4.79769 3.9775 4.7473 4.07539C4.69691 4.17328 4.67443 4.28315 4.68231 4.39296C4.69019 4.50278 4.72814 4.60831 4.792 4.698L10.919 13.288ZM13.081 10.712L18.923 3.75M10.919 13.288L5.077 20.25" stroke="white" stroke-width="1.5" stroke-linecap="round" stroke-linejoin="round"/>
</g>
</svg>
